<mxfile host="www.draw.io" modified="2020-05-28T04:33:14.713Z" agent="5.0 (X11; Linux x86_64) AppleWebKit/537.36 (KHTML, like Gecko) Chrome/80.0.3987.149 Safari/537.36" etag="3JRRRbzslOq3h7iEScK5" version="13.1.3" type="github">
  <diagram name="Page-1" id="5f0bae14-7c28-e335-631c-24af17079c00">
    <mxGraphModel dx="2740" dy="952" grid="1" gridSize="10" guides="1" tooltips="1" connect="1" arrows="1" fold="1" page="1" pageScale="1" pageWidth="1100" pageHeight="850" background="#ffffff" math="0" shadow="0">
      <root>
        <mxCell id="0" />
        <mxCell id="1" parent="0" />
        <mxCell id="2BbbxaQr6hZSvzHqME9C-2" value="&lt;font style=&quot;font-size: 24px&quot;&gt;Server&lt;/font&gt;" style="rounded=0;whiteSpace=wrap;html=1;" parent="1" vertex="1">
          <mxGeometry x="25" y="260" width="430" height="100" as="geometry" />
        </mxCell>
        <mxCell id="2BbbxaQr6hZSvzHqME9C-3" value="&lt;font style=&quot;font-size: 24px&quot;&gt;Client&lt;/font&gt;" style="rounded=0;whiteSpace=wrap;html=1;" parent="1" vertex="1">
          <mxGeometry x="385" y="590" width="260" height="70" as="geometry" />
        </mxCell>
        <mxCell id="2BbbxaQr6hZSvzHqME9C-6" value="&lt;font style=&quot;font-size: 24px&quot;&gt;COS&lt;/font&gt;" style="shape=dataStorage;whiteSpace=wrap;html=1;" parent="1" vertex="1">
          <mxGeometry x="745" y="250" width="220" height="110" as="geometry" />
        </mxCell>
        <mxCell id="2BbbxaQr6hZSvzHqME9C-18" value="" style="endArrow=classic;html=1;" parent="1" edge="1">
          <mxGeometry width="50" height="50" relative="1" as="geometry">
            <mxPoint x="545" y="309.5" as="sourcePoint" />
            <mxPoint x="745" y="309.5" as="targetPoint" />
            <Array as="points">
              <mxPoint x="685" y="309.5" />
            </Array>
          </mxGeometry>
        </mxCell>
        <mxCell id="2BbbxaQr6hZSvzHqME9C-30" value="&lt;span style=&quot;text-align: center&quot;&gt;&lt;font style=&quot;font-size: 24px&quot;&gt;1.请求密钥&lt;/font&gt;&lt;/span&gt;" style="text;whiteSpace=wrap;html=1;" parent="1" vertex="1">
          <mxGeometry x="270" y="550" width="210" height="80" as="geometry" />
        </mxCell>
        <mxCell id="2BbbxaQr6hZSvzHqME9C-35" value="&lt;font style=&quot;font-size: 18px&quot;&gt;３.客户端持有密钥&lt;br&gt;进行上传&amp;amp;下载&lt;br&gt;&lt;/font&gt;" style="shape=note;whiteSpace=wrap;html=1;backgroundOutline=1;darkOpacity=0.05;" parent="1" vertex="1">
          <mxGeometry x="-40" y="50" width="200" height="70" as="geometry" />
        </mxCell>
        <mxCell id="sp5xluREkhG6h_Tq_4LH-2" value="&lt;font style=&quot;font-size: 24px&quot;&gt;secretId&lt;/font&gt;" style="ellipse;shape=cloud;whiteSpace=wrap;html=1;" parent="1" vertex="1">
          <mxGeometry x="-10" y="200" width="150" height="90" as="geometry" />
        </mxCell>
        <mxCell id="sp5xluREkhG6h_Tq_4LH-4" value="&lt;font style=&quot;font-size: 24px&quot;&gt;cos-sdk&lt;/font&gt;" style="rounded=0;whiteSpace=wrap;html=1;" parent="1" vertex="1">
          <mxGeometry x="455" y="280" width="90" height="60" as="geometry" />
        </mxCell>
        <mxCell id="zxILmdE_aTLb1eIWgR9r-1" value="" style="endArrow=classic;html=1;exitX=0;exitY=0.75;exitDx=0;exitDy=0;" parent="1" source="2BbbxaQr6hZSvzHqME9C-6" edge="1">
          <mxGeometry width="50" height="50" relative="1" as="geometry">
            <mxPoint x="490" y="410" as="sourcePoint" />
            <mxPoint x="550" y="333" as="targetPoint" />
          </mxGeometry>
        </mxCell>
        <mxCell id="zxILmdE_aTLb1eIWgR9r-2" value="" style="endArrow=classic;html=1;exitX=0;exitY=0;exitDx=0;exitDy=0;" parent="1" source="2BbbxaQr6hZSvzHqME9C-3" edge="1">
          <mxGeometry width="50" height="50" relative="1" as="geometry">
            <mxPoint x="380" y="625" as="sourcePoint" />
            <mxPoint x="150" y="364" as="targetPoint" />
            <Array as="points">
              <mxPoint x="150" y="590" />
            </Array>
          </mxGeometry>
        </mxCell>
        <mxCell id="zxILmdE_aTLb1eIWgR9r-3" value="&lt;span style=&quot;text-align: center&quot;&gt;&lt;font style=&quot;font-size: 24px&quot;&gt;２.请求生成密钥&lt;/font&gt;&lt;/span&gt;" style="text;whiteSpace=wrap;html=1;" parent="1" vertex="1">
          <mxGeometry x="560" y="265" width="210" height="80" as="geometry" />
        </mxCell>
        <mxCell id="zxILmdE_aTLb1eIWgR9r-4" value="&lt;span style=&quot;text-align: center&quot;&gt;&lt;font style=&quot;font-size: 24px&quot;&gt;3.返回密钥&lt;/font&gt;&lt;/span&gt;" style="text;whiteSpace=wrap;html=1;" parent="1" vertex="1">
          <mxGeometry x="620" y="330" width="210" height="80" as="geometry" />
        </mxCell>
        <mxCell id="zxILmdE_aTLb1eIWgR9r-5" value="" style="endArrow=classic;html=1;exitX=0.221;exitY=1.02;exitDx=0;exitDy=0;exitPerimeter=0;" parent="1" edge="1" source="2BbbxaQr6hZSvzHqME9C-2">
          <mxGeometry width="50" height="50" relative="1" as="geometry">
            <mxPoint x="240" y="370" as="sourcePoint" />
            <mxPoint x="390" y="608" as="targetPoint" />
            <Array as="points">
              <mxPoint x="120" y="610" />
            </Array>
          </mxGeometry>
        </mxCell>
        <mxCell id="zxILmdE_aTLb1eIWgR9r-6" value="&lt;span style=&quot;text-align: center&quot;&gt;&lt;font style=&quot;font-size: 24px&quot;&gt;4.返回密钥&lt;/font&gt;&lt;/span&gt;" style="text;whiteSpace=wrap;html=1;" parent="1" vertex="1">
          <mxGeometry x="-10" y="360" width="210" height="80" as="geometry" />
        </mxCell>
        <mxCell id="Sv0P2uase_pLkztzvCiE-1" value="&lt;font style=&quot;font-size: 24px&quot;&gt;cos-sdk&lt;/font&gt;" style="rounded=0;whiteSpace=wrap;html=1;" parent="1" vertex="1">
          <mxGeometry x="645" y="600" width="90" height="40" as="geometry" />
        </mxCell>
        <mxCell id="Sv0P2uase_pLkztzvCiE-2" value="" style="endArrow=classic;html=1;exitX=1;exitY=0.25;exitDx=0;exitDy=0;entryX=0.5;entryY=1;entryDx=0;entryDy=0;" parent="1" source="Sv0P2uase_pLkztzvCiE-1" target="2BbbxaQr6hZSvzHqME9C-6" edge="1">
          <mxGeometry width="50" height="50" relative="1" as="geometry">
            <mxPoint x="440" y="460" as="sourcePoint" />
            <mxPoint x="860" y="370" as="targetPoint" />
            <Array as="points">
              <mxPoint x="860" y="610" />
            </Array>
          </mxGeometry>
        </mxCell>
        <mxCell id="Sv0P2uase_pLkztzvCiE-3" value="&lt;font style=&quot;font-size: 24px&quot;&gt;5.使用密钥上传/下载文件&lt;/font&gt;" style="text;html=1;align=center;verticalAlign=middle;resizable=0;points=[];autosize=1;" parent="1" vertex="1">
          <mxGeometry x="580" y="530" width="290" height="20" as="geometry" />
        </mxCell>
        <mxCell id="Sv0P2uase_pLkztzvCiE-4" value="&lt;font style=&quot;font-size: 24px&quot;&gt;1.密钥为临时密钥，有有效期;&lt;br&gt;2.可以设置密钥的操作权限&lt;br&gt;&lt;br&gt;&lt;/font&gt;" style="shape=note;whiteSpace=wrap;html=1;backgroundOutline=1;darkOpacity=0.05;align=left;" parent="1" vertex="1">
          <mxGeometry x="492.5" y="130" width="345" height="90" as="geometry" />
        </mxCell>
        <mxCell id="uOgvu6rKqU1T-ngewVmN-2" value="" style="endArrow=classic;html=1;" edge="1" parent="1">
          <mxGeometry width="50" height="50" relative="1" as="geometry">
            <mxPoint x="380" y="650" as="sourcePoint" />
            <mxPoint x="20" y="320" as="targetPoint" />
            <Array as="points">
              <mxPoint x="-40" y="650" />
              <mxPoint x="-40" y="320" />
            </Array>
          </mxGeometry>
        </mxCell>
        <mxCell id="uOgvu6rKqU1T-ngewVmN-4" value="&lt;div style=&quot;text-align: center&quot;&gt;&lt;span style=&quot;font-size: 24px&quot;&gt;8.事件上报&lt;/span&gt;&lt;/div&gt;" style="text;whiteSpace=wrap;html=1;" vertex="1" parent="1">
          <mxGeometry x="260" y="650" width="210" height="80" as="geometry" />
        </mxCell>
        <mxCell id="uOgvu6rKqU1T-ngewVmN-5" value="" style="endArrow=classic;html=1;exitX=0.69;exitY=1.006;exitDx=0;exitDy=0;exitPerimeter=0;" edge="1" parent="1" source="2BbbxaQr6hZSvzHqME9C-6">
          <mxGeometry width="50" height="50" relative="1" as="geometry">
            <mxPoint x="744.9999999999995" y="620" as="sourcePoint" />
            <mxPoint x="740" y="630" as="targetPoint" />
            <Array as="points">
              <mxPoint x="897" y="630" />
            </Array>
          </mxGeometry>
        </mxCell>
        <mxCell id="uOgvu6rKqU1T-ngewVmN-7" value="&lt;font style=&quot;font-size: 24px&quot;&gt;6.操作成功&lt;/font&gt;" style="text;html=1;align=center;verticalAlign=middle;resizable=0;points=[];autosize=1;" vertex="1" parent="1">
          <mxGeometry x="900" y="370" width="130" height="20" as="geometry" />
        </mxCell>
      </root>
    </mxGraphModel>
  </diagram>
</mxfile>
